<?xml version="1.0" standalone="no"?>
<!DOCTYPE svg PUBLIC "-//W3C//DTD SVG 20010904//EN"
 "http://www.w3.org/TR/2001/REC-SVG-20010904/DTD/svg10.dtd">
<svg version="1.0" xmlns="http://www.w3.org/2000/svg"
 width="225.000000pt" height="225.000000pt" viewBox="0 0 225.000000 225.000000"
 preserveAspectRatio="xMidYMid meet">

<g transform="translate(0.000000,225.000000) scale(0.100000,-0.100000)"
fill="#000000" stroke="none">
<path d="M348 1537 c-72 -21 -156 -76 -207 -138 -45 -53 -79 -114 -69 -124 13
-13 105 38 125 69 58 90 229 149 338 117 23 -6 42 -3 80 14 l50 23 -50 22
c-61 28 -197 37 -267 17z"/>
<path d="M1223 1491 c-53 -25 -83 -71 -83 -129 0 -83 45 -128 127 -126 53 1
91 26 115 75 36 74 36 74 -82 75 -115 1 -124 7 -74 52 32 28 94 30 118 3 10
-11 25 -17 37 -14 47 13 -11 71 -77 79 -26 3 -53 -2 -81 -15z m127 -151 c0 -6
-11 -22 -25 -35 -31 -32 -86 -34 -115 -5 -40 40 -27 50 60 50 49 0 80 -4 80
-10z"/>
<path d="M1865 1420 c-11 -4 -32 -6 -46 -3 -26 5 -26 4 -44 -94 -9 -54 -19
-108 -22 -120 -4 -19 -1 -23 21 -23 20 0 26 5 26 23 0 39 13 49 48 36 26 -9
38 -8 69 8 73 35 77 140 7 169 -18 8 -35 14 -36 13 -2 0 -12 -4 -23 -9z m57
-65 c17 -37 -13 -77 -55 -73 -68 7 -55 98 15 98 21 0 32 -7 40 -25z"/>
<path d="M2073 1419 c-66 -19 -94 -99 -53 -152 56 -70 180 -22 180 70 0 61
-60 100 -127 82z m61 -45 c19 -7 22 -64 4 -82 -13 -13 -47 -16 -72 -6 -21 8
-21 58 0 78 16 17 41 20 68 10z"/>
<path d="M1431 1358 c-6 -35 -14 -75 -17 -90 -5 -25 -3 -28 19 -28 22 0 26 6
32 43 10 58 22 77 55 88 34 12 48 49 18 49 -10 0 -28 -5 -39 -10 -13 -7 -19
-7 -19 0 0 5 -8 10 -19 10 -15 0 -21 -12 -30 -62z"/>
<path d="M1586 1411 c-3 -5 -9 -40 -12 -79 -6 -67 -6 -70 19 -87 20 -12 35
-15 59 -9 18 5 44 8 57 9 23 0 26 6 41 88 l17 87 -23 0 c-24 0 -28 -9 -39 -77
-8 -48 -24 -66 -57 -61 -22 3 -23 7 -21 71 2 60 0 67 -17 67 -10 0 -21 -4 -24
-9z"/>
<path d="M718 1397 l-26 -12 20 -28 c11 -15 19 -29 17 -31 -2 -1 -69 -10 -149
-18 -129 -14 -159 -21 -270 -63 -69 -26 -138 -53 -155 -60 -16 -7 -49 -18 -72
-25 -39 -10 -43 -14 -43 -43 0 -18 3 -42 6 -53 5 -21 7 -21 42 -7 34 13 37 17
37 56 l0 42 110 12 c61 7 131 13 157 14 27 0 45 5 42 10 -3 5 6 9 20 9 14 0
28 5 31 10 3 6 17 10 30 10 13 0 27 5 30 10 3 6 21 10 38 11 27 0 29 2 12 9
-19 8 -18 9 4 9 31 1 94 23 103 36 4 5 8 6 8 1 0 -5 7 -3 15 4 8 6 19 9 24 5
6 -3 22 1 35 10 14 9 30 14 35 10 15 -9 2 24 -23 58 -21 29 -36 32 -78 14z"/>
<path d="M850 1243 c0 -6 -13 -16 -29 -21 -27 -10 -29 -13 -24 -50 4 -28 1
-41 -9 -45 -8 -3 -75 -10 -149 -17 -129 -11 -180 -24 -339 -85 -19 -7 -61 -23
-92 -35 -32 -12 -68 -23 -82 -24 -13 0 -22 -4 -19 -8 2 -5 -3 -8 -12 -8 -14 0
-14 -3 1 -32 28 -55 115 -132 189 -169 66 -32 75 -34 175 -34 97 0 110 2 172
32 94 44 161 110 206 202 35 71 37 82 37 171 0 57 -5 103 -12 115 -7 11 -13
15 -13 8z m-455 -285 c-44 -16 -55 -27 -55 -58 0 -32 21 -53 53 -52 12 0 96
28 186 61 90 34 168 60 173 59 5 -2 -9 -27 -32 -55 -30 -38 -60 -61 -108 -85
-60 -30 -75 -33 -152 -33 -70 1 -95 5 -142 27 -59 28 -142 101 -135 121 4 14
72 24 172 25 61 0 66 -1 40 -10z"/>
<path d="M1185 1158 c-5 -14 -45 -238 -45 -250 0 -4 11 -8 24 -8 20 0 25 6 31
39 l6 39 61 4 c51 4 65 9 85 32 25 29 31 83 13 116 -18 34 -165 57 -175 28z
m119 -44 c22 -9 20 -57 -3 -78 -12 -11 -31 -16 -53 -14 -31 3 -33 5 -30 38 1
19 4 41 7 48 5 13 52 16 79 6z"/>
<path d="M1416 1148 c-7 -30 -46 -238 -46 -244 0 -2 11 -4 24 -4 22 0 25 6 36
73 17 103 22 106 55 37 16 -33 33 -60 39 -60 6 0 33 25 60 56 26 30 50 53 53
50 4 -4 -11 -95 -23 -138 -4 -14 1 -18 19 -18 23 0 25 6 46 113 12 61 25 122
28 135 11 45 -31 23 -103 -55 l-71 -77 -39 75 c-41 77 -69 98 -78 57z"/>
</g>
</svg>
