<?xml version="1.0" standalone="no"?>
<!DOCTYPE svg PUBLIC "-//W3C//DTD SVG 20010904//EN"
 "http://www.w3.org/TR/2001/REC-SVG-20010904/DTD/svg10.dtd">
<svg version="1.0" xmlns="http://www.w3.org/2000/svg"
 width="1600.000000pt" height="1689.000000pt" viewBox="0 0 1600.000000 1689.000000"
 preserveAspectRatio="xMidYMid meet">

<g transform="translate(0.000000,1689.000000) scale(0.100000,-0.100000)"
fill="#000000" stroke="none">
<path d="M1587 14313 c-4 -3 -7 -2402 -7 -5330 l0 -5323 6410 0 6410 0 -2
1507 -3 1508 -82 3 -83 3 0 979 0 980 85 0 85 0 0 2840 0 2840 -4375 0 -4375
0 0 -75 0 -75 -360 0 -359 0 -3 73 -3 72 -1666 3 c-916 1 -1669 -1 -1672 -5z
m3313 -333 l0 -310 -1100 0 -1100 0 0 29 c0 16 -6 33 -13 39 -15 13 -481 14
-515 1 l-22 -8 2 -263 3 -263 38 -3 37 -3 0 -1554 0 -1554 -37 -3 -38 -3 -3
-290 c-1 -159 0 -300 3 -312 4 -19 12 -23 44 -23 l39 0 4 -137 c2 -76 1 -1111
0 -2300 l-4 -2163 -39 0 c-32 0 -40 -4 -44 -22 -3 -13 -4 -153 -3 -313 l3
-290 305 0 305 0 3 38 3 37 1207 1 c1551 2 6473 2 8024 0 l1197 -1 3 -37 3
-38 310 0 310 0 3 290 c1 160 0 300 -3 313 -4 18 -12 22 -45 22 l-40 0 3 893
2 892 313 3 312 2 0 -1480 0 -1480 -132 0 c-73 0 -2943 0 -6378 -1 l-6245 0
-3 5301 -2 5300 1645 0 1645 0 0 -310z m9470 -2500 l0 -2810 -315 0 -314 0 0
453 c-1 1032 0 2030 2 2982 l2 1010 40 5 40 5 3 299 c1 196 -1 303 -8 311 -8
9 -73 13 -258 13 -136 1 -273 -1 -304 -4 l-58 -6 0 -38 0 -37 -2536 -5 c-1394
-3 -2954 -3 -3465 0 l-929 5 0 38 c0 33 -3 38 -29 44 -16 3 -82 5 -147 4 -66
-1 -185 -1 -266 0 l-148 1 0 270 0 270 4345 0 4345 0 0 -2810z m-8720 2550 l0
-110 -360 0 -360 0 0 110 0 110 360 0 360 0 0 -110z m0 -204 c0 -35 -3 -84 -6
-110 l-7 -46 -353 0 -354 0 0 110 0 110 360 0 360 0 0 -64z m-8 -443 l3 -258
38 -5 38 -5 0 -1345 c0 -740 0 -1438 -1 -1552 l0 -208 -153 0 c-106 0 -157 -4
-165 -12 -7 -7 -12 -29 -12 -49 0 -33 -3 -37 -30 -41 l-30 -5 0 309 0 308 -56
0 c-149 0 -318 -81 -436 -208 -91 -99 -145 -209 -169 -346 l-10 -61 -46 4
c-24 2 -50 -2 -56 -8 -15 -15 -773 -16 -782 -1 -3 6 -28 10 -55 10 -27 0 -52
-4 -55 -10 -4 -6 -138 -10 -370 -10 -232 0 -366 4 -370 10 -3 6 -19 10 -35 10
-27 0 -29 3 -32 48 l-3 47 -42 3 c-40 3 -42 4 -45 40 l-3 37 -117 3 -118 3 0
1554 0 1554 83 3 82 3 3 77 3 78 1122 2 1122 3 3 98 c2 74 0 97 -10 97 -7 0
-514 0 -1125 0 l-1113 0 0 40 0 40 1470 0 1470 0 2 -257z m3449 237 l119 0 0
-54 0 -55 -735 0 -735 0 0 54 0 55 588 3 c323 1 600 1 616 0 16 -2 82 -3 147
-3z m-4171 -155 l0 -75 -1110 0 -1110 0 0 75 0 75 1110 0 1110 0 0 -75z m2848
7 c2 -7 -3 -12 -12 -12 -9 0 -16 7 -16 16 0 17 22 14 28 -4z m642 3 c0 -13
-41 -15 -305 -15 -264 0 -305 2 -305 15 0 13 41 15 305 15 264 0 305 -2 305
-15z m100 0 c0 -10 -11 -15 -35 -15 -24 0 -35 5 -35 15 0 10 11 15 35 15 24 0
35 -5 35 -15z m648 -2 c3 -10 -63 -13 -307 -13 -271 0 -311 2 -311 15 0 13 38
15 307 13 234 -2 307 -6 311 -15z m52 2 c0 -8 -7 -15 -15 -15 -16 0 -20 12 -8
23 11 12 23 8 23 -8z m0 -100 l0 -55 -735 0 -735 0 0 55 0 55 735 0 735 0 0
-55z m-730 -340 l0 -255 95 0 95 0 0 -85 c0 -83 1 -85 29 -99 40 -21 158 -38
211 -31 25 3 68 13 97 21 l52 14 3 88 3 87 93 3 92 3 0 249 0 250 145 0 145 0
0 -710 0 -710 170 0 170 0 0 -510 0 -510 -60 0 -60 0 0 321 0 322 -74 -6 c-94
-8 -213 -46 -295 -94 -173 -102 -316 -312 -338 -495 l-6 -48 -458 0 -459 0 0
270 0 270 -1015 0 -1015 0 0 125 0 125 160 0 160 0 0 165 0 165 -160 0 c-88 0
-160 4 -160 8 0 5 253 7 563 5 556 -4 565 -5 783 -34 121 -16 228 -27 236 -24
23 9 30 49 16 82 -9 20 -13 150 -14 468 -2 388 3 512 22 591 3 13 -2 28 -12
39 -20 20 -66 17 -274 -17 -107 -18 -178 -21 -505 -24 -209 -1 -478 -5 -597
-9 l-218 -5 0 120 0 120 818 3 c449 1 985 3 1190 5 l372 2 0 -255z m750 15 l0
-240 -360 0 -360 0 0 240 0 240 360 0 360 0 0 -240z m4142 -1563 c4 -985 3
-1945 0 -2132 l-7 -340 -112 -3 -113 -3 0 251 0 250 -95 0 -94 0 -3 87 -3 87
-50 20 c-68 26 -200 26 -275 0 l-55 -19 -3 -87 -3 -88 -94 0 -95 0 0 -250 0
-250 -130 0 -130 0 0 270 0 270 -987 1 c-544 1 -998 0 -1010 -1 -21 -1 -22 1
-25 139 l-3 141 320 2 320 3 -2 60 c-7 295 -250 572 -555 633 l-83 17 3 263 2
262 170 0 170 0 0 990 0 990 -170 0 -170 0 0 118 0 117 1638 -3 1639 -2 5
-1793z m-3492 1553 l0 -240 -155 0 -155 0 0 240 0 240 155 0 155 0 0 -240z
m-7550 -1395 l0 -1555 -35 0 -35 0 0 1555 0 1555 35 0 35 0 0 -1555z m170 0
l0 -1555 -75 0 -75 0 0 1555 0 1555 75 0 75 0 0 -1555z m5176 1430 c4 -8 2
-41 -4 -73 -5 -31 -10 -45 -11 -31 0 14 -11 34 -22 45 -19 17 -38 19 -179 19
-87 0 -157 2 -154 4 2 2 50 10 106 18 57 7 130 17 163 22 89 13 95 12 101 -4z
m2724 -300 l0 -245 -155 0 -155 0 0 245 0 245 155 0 155 0 0 -245z m-3740
-265 l0 -500 -280 0 -280 0 0 500 0 500 280 0 280 0 0 -500z m968 488 c18 -18
17 -961 0 -976 -15 -11 -324 -17 -700 -14 l-248 2 0 500 0 500 468 0 c351 0
471 -3 480 -12z m1406 -275 c-3 -32 -7 -63 -9 -70 -10 -33 -234 -43 -297 -13
-26 12 -28 17 -28 77 l0 63 170 0 170 0 -6 -57z m846 -393 l0 -440 -155 0
-155 0 0 440 0 440 155 0 155 0 0 -440z m520 -270 l0 -440 -155 0 -155 0 0
440 0 440 155 0 155 0 0 -440z m-2733 353 c-2 -16 -4 -3 -4 27 0 30 2 43 4 28
2 -16 2 -40 0 -55z m12 -439 c1 -21 -5 -34 -15 -38 -17 -6 -303 29 -359 44
-17 5 25 6 96 3 197 -9 257 8 260 75 1 21 3 19 10 -13 4 -22 8 -54 8 -71z
m-1281 -176 l-3 -143 -145 0 -145 0 -3 143 -3 142 151 0 151 0 -3 -142z m4002
-453 l0 -245 -155 0 -155 0 0 245 0 245 155 0 155 0 0 -245z m-660 -240 c0
-223 4 -345 10 -345 6 0 10 -11 10 -25 0 -24 3 -25 60 -25 l59 0 3 -82 3 -83
65 -3 c35 -2 67 -7 70 -13 4 -5 43 -14 89 -19 237 -30 428 -171 531 -392 30
-64 59 -178 60 -230 l0 -28 -339 0 c-292 0 -340 -2 -345 -15 -4 -11 -22 -15
-71 -15 l-65 0 0 -410 0 -410 -123 0 -123 0 3 -327 c1 -181 3 -331 3 -335 0
-5 315 -8 699 -8 l700 0 3 -47 3 -48 58 -3 c37 -2 55 -7 51 -14 -14 -22 27
-28 196 -28 96 1 268 1 381 0 l205 0 -7 -68 c-25 -230 -155 -438 -354 -565
-114 -72 -213 -105 -367 -122 -32 -4 -58 -11 -58 -16 0 -5 6 -10 13 -11 6 -1
-17 -4 -53 -7 l-65 -6 -3 -67 -3 -68 -1272 0 c-977 0 -1276 -3 -1285 -12 -7
-7 -12 -25 -12 -40 0 -15 -4 -28 -10 -28 -6 0 -10 -120 -10 -341 l0 -342 -60
7 c-320 36 -559 283 -595 614 -5 46 -11 62 -22 62 -11 0 -14 6 -10 22 3 12 2
30 -4 40 -9 17 -44 18 -834 18 l-825 0 0 100 0 100 283 2 282 3 -3 50 c-8 143
-66 269 -172 376 -79 80 -150 126 -239 155 l-55 18 52 17 c186 63 329 207 386
389 21 64 31 135 27 188 -1 9 -64 12 -281 12 l-280 0 0 100 0 100 1413 2 1412
3 3 134 c3 143 -2 161 -44 161 -13 0 -24 5 -24 10 0 6 -95 10 -265 10 -205 0
-265 3 -265 13 0 6 7 42 15 80 45 214 229 377 455 403 33 4 60 10 60 15 0 4
15 9 33 11 l32 3 3 492 2 492 58 3 c52 3 57 5 56 26 0 12 5 22 13 22 9 0 13
14 13 43 1 167 106 378 247 493 104 84 272 152 381 153 l42 1 0 -345z m-1634
120 l-1 -125 -36 0 c-36 0 -36 1 -43 46 -3 26 -6 59 -6 75 0 15 -5 40 -10 55
-10 25 -12 26 -27 11 -12 -12 -18 -41 -21 -102 -4 -75 -7 -85 -23 -85 -17 0
-19 9 -20 73 -1 80 -9 119 -26 124 -17 6 -33 -54 -33 -128 0 -61 -2 -69 -19
-69 -16 0 -19 10 -23 90 -2 51 -9 95 -16 102 -23 23 -36 -10 -40 -102 -4 -80
-7 -90 -23 -90 -16 0 -19 8 -19 58 0 80 -10 130 -27 136 -20 8 -31 -30 -35
-118 -2 -62 -6 -76 -19 -76 -13 0 -17 16 -22 86 -3 59 -10 91 -21 102 -14 14
-16 13 -24 -9 -5 -13 -13 -59 -17 -101 -4 -53 -11 -78 -19 -78 -9 0 -15 26
-18 85 -10 150 -51 150 -63 -1 -10 -112 -30 -114 -38 -4 -7 86 -22 129 -39
112 -14 -14 -27 -85 -28 -144 0 -34 -4 -48 -14 -48 -10 0 -16 23 -21 84 -12
150 -51 151 -62 2 -8 -116 -28 -117 -38 -3 -4 45 -12 90 -17 101 -9 16 -12 17
-25 3 -10 -10 -17 -43 -20 -101 l-6 -86 -28 0 -28 0 -3 83 -3 82 -492 3 -493
2 0 40 0 40 1003 0 1003 0 0 -125z m-1046 -185 l0 -200 -480 0 -480 0 0 200 0
200 480 0 480 0 0 -200z m127 83 c-2 -16 -4 -3 -4 27 0 30 2 43 4 28 2 -16 2
-40 0 -55z m100 0 c-2 -16 -4 -3 -4 27 0 30 2 43 4 28 2 -16 2 -40 0 -55z
m100 0 c-2 -16 -4 -3 -4 27 0 30 2 43 4 28 2 -16 2 -40 0 -55z m100 0 c-2 -16
-4 -3 -4 27 0 30 2 43 4 28 2 -16 2 -40 0 -55z m100 0 c-2 -16 -4 -3 -4 27 0
30 2 43 4 28 2 -16 2 -40 0 -55z m107 20 c4 -27 2 -43 -4 -43 -5 0 -10 21 -10
47 0 55 5 54 14 -4z m206 2 c0 -25 -4 -45 -10 -45 -11 0 -13 33 -4 68 10 34
14 27 14 -23z m100 0 c0 -25 -3 -45 -8 -45 -4 0 -6 20 -4 45 2 25 6 45 8 45 2
0 4 -20 4 -45z m-200 -11 c0 -19 -4 -34 -10 -34 -5 0 -10 18 -10 41 0 24 4 38
10 34 6 -3 10 -22 10 -41z m5710 -806 l0 -738 -55 0 -55 0 0 733 c0 404 2 736
5 739 3 2 28 5 55 4 l50 0 0 -738z m60 727 c0 -8 -7 -15 -15 -15 -16 0 -20 12
-8 23 11 12 23 8 23 -8z m138 -728 l2 -737 -55 0 -55 0 0 741 0 741 53 -4 52
-3 3 -738z m-6557 661 c2 -84 11 -122 30 -126 20 -4 26 17 35 116 9 99 29 96
37 -5 6 -87 13 -113 32 -113 18 0 24 19 31 110 5 52 11 80 19 80 8 0 14 -28
19 -80 7 -91 13 -110 31 -110 18 0 25 24 32 112 8 107 28 105 38 -3 8 -93 12
-109 30 -109 19 0 26 26 32 113 7 100 28 105 37 10 11 -106 16 -125 34 -121
20 4 29 41 31 126 1 45 5 62 15 62 15 0 26 -42 26 -104 0 -59 10 -87 28 -84
21 4 30 38 31 121 1 60 3 67 21 67 18 0 20 -7 20 -64 0 -83 9 -126 26 -126 22
0 34 44 34 121 0 62 2 69 20 69 18 0 20 -7 21 -67 1 -83 10 -117 31 -121 17
-3 28 34 28 93 0 53 12 95 26 95 10 0 14 -17 15 -62 2 -85 11 -122 31 -126 18
-4 23 14 33 121 l7 67 38 0 39 0 -2 -105 -2 -105 -507 0 -508 0 0 105 0 105
30 0 30 0 1 -62z m38 10 c-1 -55 -5 -50 -11 15 -2 20 0 37 4 37 4 0 7 -24 7
-52z m98 -25 c-2 -16 -4 -3 -4 27 0 30 2 43 4 28 2 -16 2 -40 0 -55z m100 0
c-2 -16 -4 -3 -4 27 0 30 2 43 4 28 2 -16 2 -40 0 -55z m100 0 c-2 -16 -4 -3
-4 27 0 30 2 43 4 28 2 -16 2 -40 0 -55z m100 0 c-2 -16 -4 -3 -4 27 0 30 2
43 4 28 2 -16 2 -40 0 -55z m112 60 c-1 -10 -5 -31 -9 -48 -7 -27 -8 -25 -9
18 0 26 4 47 9 47 6 0 9 -8 9 -17z m101 -22 c0 -22 -4 -43 -10 -46 -6 -4 -10
12 -10 39 0 25 5 46 10 46 6 0 10 -18 10 -39z m99 -8 c0 -36 -3 -43 -9 -28
-12 28 -12 75 0 75 6 0 10 -21 9 -47z m100 0 c-1 -53 -6 -49 -11 10 -2 20 0
37 4 37 4 0 8 -21 7 -47z m5571 -303 c0 -269 -2 -310 -15 -310 -13 0 -15 41
-15 310 0 269 2 310 15 310 13 0 15 -41 15 -310z m-6740 -725 l0 -735 -365 0
-365 0 0 735 0 735 365 0 365 0 0 -735z m850 495 l0 -240 -410 0 -410 0 0 240
0 240 410 0 410 0 0 -240z m452 223 c2 -9 2 -116 0 -239 l-3 -223 -67 -3 c-37
-2 -131 -2 -209 0 l-143 3 0 240 0 239 209 0 c187 0 210 -2 213 -17z m668 -68
l0 -85 -255 0 -255 0 0 85 0 85 255 0 255 0 0 -85z m-3490 -444 c0 -216 3
-322 11 -326 6 -4 8 -13 5 -21 -10 -25 5 -44 35 -44 l28 0 3 -77 3 -78 247 -3
248 -2 2 -478 3 -477 78 -3 c42 -2 77 -7 77 -12 0 -6 114 -10 295 -10 l295 0
-6 -47 c-34 -271 -253 -487 -516 -510 -90 -8 -91 -28 -3 -37 268 -27 488 -246
518 -513 l5 -43 -256 -1 c-142 -1 -273 0 -293 1 -25 1 -38 -4 -42 -14 -5 -13
-23 -16 -82 -16 l-75 0 0 -50 0 -50 -165 0 -166 0 7 -89 c7 -87 6 -90 -19
-115 -44 -44 -130 -29 -150 26 -3 10 -7 10 -17 1 -19 -17 5 -77 43 -109 28
-24 37 -26 89 -21 55 5 58 4 58 -18 0 -31 -53 -75 -92 -75 -20 0 -40 10 -60
30 -39 39 -51 38 -42 -2 10 -47 30 -74 69 -92 38 -18 63 -20 99 -6 24 9 26 7
26 -19 0 -41 -41 -76 -91 -76 -34 0 -45 6 -68 34 -19 23 -30 30 -35 22 -14
-22 5 -70 39 -100 40 -35 81 -46 120 -31 15 6 28 9 29 8 0 -2 0 -466 -2 -1032
l-3 -1029 -286 6 c-157 4 -391 7 -520 7 l-233 0 0 350 0 350 -581 2 -581 3 1
565 c0 311 -3 571 -7 577 -6 10 -96 13 -370 15 l-362 3 -4 1120 c-1 616 -4
1170 -4 1230 -1 61 1 247 4 415 l6 305 118 3 119 3 3 77 c3 77 3 77 33 82 17
2 420 5 897 5 894 0 895 0 872 36 -3 6 -1 15 4 22 6 7 15 46 21 87 31 226 152
395 357 499 69 35 158 59 222 60 l42 1 0 -319z m3017 225 c1 -1 -6 -66 -14
-145 -13 -119 -14 -149 -3 -180 52 -148 253 -164 321 -24 22 46 22 50 11 177
-7 72 -15 141 -18 152 -5 20 -1 22 43 25 26 2 67 3 91 1 l42 -3 0 -342 0 -342
-67 -13 c-205 -39 -379 -218 -419 -433 -9 -44 -13 -87 -10 -95 4 -12 48 -14
251 -14 l245 0 0 -80 0 -80 -1350 0 -1350 0 0 100 0 100 380 0 380 0 0 495 0
495 650 0 650 0 0 108 0 107 83 -3 c45 -2 83 -5 84 -6z m273 -23 l0 -28 -125
0 -125 0 0 28 0 27 125 0 125 0 0 -27z m4970 -53 c0 -20 -5 -30 -15 -30 -10 0
-15 10 -15 30 0 20 5 30 15 30 10 0 15 -10 15 -30z m-4965 -12 c13 -35 22
-193 13 -226 -14 -52 -65 -98 -115 -107 -55 -9 -125 21 -153 67 -19 30 -21 43
-16 138 2 58 8 113 11 123 6 15 22 17 131 17 91 0 126 -3 129 -12z m4965 -358
c0 -269 -2 -310 -15 -310 -13 0 -15 41 -15 310 0 269 2 310 15 310 13 0 15
-41 15 -310z m-9910 -112 c0 -17 -24 -18 -365 -18 -308 0 -365 2 -365 14 0 8
5 16 10 18 6 2 170 3 365 3 331 0 355 -1 355 -17z m880 0 c0 -17 -25 -18 -380
-18 -310 0 -380 2 -380 13 0 8 2 16 4 18 2 2 173 4 380 4 351 0 376 -1 376
-17z m8353 -197 c26 -10 27 -14 27 -76 l0 -65 -165 0 -165 0 0 64 c0 68 3 72
75 90 33 8 198 -1 228 -13z m677 -46 c0 -8 -7 -15 -15 -15 -8 0 -15 7 -15 15
0 8 7 15 15 15 8 0 15 -7 15 -15z m-1490 -204 l0 -129 -39 2 -38 1 -6 80 c-6
89 -13 115 -32 115 -18 0 -23 -19 -31 -117 -4 -55 -11 -83 -19 -83 -8 0 -14
27 -18 83 -6 92 -13 117 -32 117 -18 0 -24 -21 -31 -116 -5 -55 -11 -84 -19
-84 -8 0 -14 29 -19 84 -7 95 -13 116 -31 116 -19 0 -26 -25 -32 -117 -8 -110
-28 -112 -37 -5 -8 96 -15 122 -32 122 -18 0 -34 -63 -34 -137 0 -47 -4 -63
-14 -63 -10 0 -16 20 -21 73 -9 102 -15 127 -30 127 -22 0 -28 -18 -34 -109
-5 -65 -9 -86 -20 -86 -11 0 -16 16 -18 55 -6 102 -14 140 -28 140 -22 0 -28
-18 -34 -109 -5 -67 -9 -86 -21 -86 -11 0 -16 14 -17 55 -5 108 -13 140 -33
140 -20 0 -28 -32 -33 -140 -1 -41 -6 -55 -17 -55 -12 0 -16 19 -21 86 -6 91
-12 109 -34 109 -14 0 -19 -24 -31 -137 -4 -44 -10 -63 -20 -63 -11 0 -14 17
-15 68 -2 88 -11 126 -30 130 -20 4 -25 -15 -34 -120 -7 -78 -7 -78 -36 -78
l-29 0 0 90 0 90 -485 0 -485 0 0 40 0 40 995 0 995 0 0 -129z m1035 -156 l0
-235 -358 2 -358 3 -2 233 -2 232 360 0 360 0 0 -235z m-2085 -30 l0 -205
-470 0 -470 0 0 205 0 205 470 0 470 0 0 -205z m637 83 c-2 -18 -4 -6 -4 27 0
33 2 48 4 33 2 -15 2 -42 0 -60z m100 0 c-2 -18 -4 -6 -4 27 0 33 2 48 4 33 2
-15 2 -42 0 -60z m100 0 c-2 -18 -4 -6 -4 27 0 33 2 48 4 33 2 -15 2 -42 0
-60z m100 0 c-2 -18 -4 -6 -4 27 0 33 2 48 4 33 2 -15 2 -42 0 -60z m-810 -5
c-2 -16 -4 -3 -4 27 0 30 2 43 4 28 2 -16 2 -40 0 -55z m102 -17 c-5 -6 -8 12
-8 45 l2 54 7 -45 c4 -25 4 -49 -1 -54z m211 49 c0 -25 -4 -45 -10 -45 -11 0
-13 33 -4 68 10 34 14 27 14 -23z m100 -6 c0 -27 -3 -48 -8 -45 -7 4 -4 96 4
96 2 0 4 -23 4 -51z m-200 -5 c0 -19 -4 -34 -10 -34 -5 0 -10 18 -10 41 0 24
4 38 10 34 6 -3 10 -22 10 -41z m-243 -175 c10 -83 24 -122 39 -107 11 12 24
83 24 141 0 44 3 57 15 57 8 0 15 -3 16 -7 9 -117 18 -176 28 -186 22 -22 35
11 39 103 4 78 7 90 22 90 15 0 18 -12 22 -90 2 -51 9 -95 16 -102 23 -23 36
10 40 102 4 80 7 90 23 90 17 0 19 -9 20 -72 1 -83 9 -120 27 -126 18 -6 31
39 33 122 3 66 5 76 21 76 15 0 18 -10 19 -67 2 -88 11 -128 29 -128 17 0 27
36 35 128 5 44 11 67 19 67 9 0 15 -25 19 -82 5 -86 13 -118 28 -118 17 0 28
39 35 119 9 110 29 109 37 -1 6 -87 13 -118 28 -118 17 0 30 42 36 120 8 111
28 107 37 -7 6 -82 24 -128 42 -110 10 10 23 88 24 145 0 37 4 52 14 52 10 0
16 -23 21 -84 6 -79 24 -130 40 -114 12 12 25 82 25 141 l0 57 40 0 40 0 0
-110 0 -110 -510 0 -510 0 0 110 0 110 29 0 28 0 10 -91z m30 14 c-2 -16 -4
-3 -4 27 0 30 2 43 4 28 2 -16 2 -40 0 -55z m107 30 c-9 -65 -14 -67 -14 -5 0
30 4 52 11 52 7 0 8 -16 3 -47z m106 13 c0 -19 -4 -38 -10 -41 -6 -4 -10 10
-10 34 0 23 5 41 10 41 6 0 10 -15 10 -34z m99 -18 c-1 -42 -3 -48 -9 -28 -12
36 -12 80 0 80 6 0 10 -24 9 -52z m101 0 c0 -28 -2 -49 -4 -47 -8 9 -13 99 -5
99 5 0 9 -23 9 -52z m97 -25 c-2 -16 -4 -3 -4 27 0 30 2 43 4 28 2 -16 2 -40
0 -55z m100 0 c-2 -16 -4 -3 -4 27 0 30 2 43 4 28 2 -16 2 -40 0 -55z m100 0
c-2 -16 -4 -3 -4 27 0 30 2 43 4 28 2 -16 2 -40 0 -55z m100 0 c-2 -16 -4 -3
-4 27 0 30 2 43 4 28 2 -16 2 -40 0 -55z m-9587 -168 l0 -225 -55 0 -55 0 0
225 0 225 55 0 55 0 0 -225z m60 210 c0 -8 -7 -15 -15 -15 -8 0 -15 7 -15 15
0 8 7 15 15 15 8 0 15 -7 15 -15z m140 -210 l0 -225 -55 0 -55 0 0 225 0 225
55 0 55 0 0 -225z m-140 5 c0 -144 -2 -170 -15 -170 -13 0 -15 26 -15 170 0
144 2 170 15 170 13 0 15 -26 15 -170z m8600 -239 c0 -120 -1 -129 -20 -134
-11 -3 -22 -2 -24 1 -2 4 -7 43 -11 87 -9 103 -14 125 -31 125 -19 0 -34 -63
-34 -142 0 -52 -3 -68 -14 -68 -11 0 -16 20 -21 78 -8 93 -17 127 -35 127 -20
0 -28 -37 -29 -127 -1 -70 -3 -78 -20 -78 -17 0 -19 9 -23 95 -2 57 -8 99 -15
107 -25 24 -37 -9 -41 -107 -4 -85 -6 -95 -23 -95 -17 0 -19 9 -20 78 -1 86
-9 124 -27 130 -19 6 -30 -38 -34 -127 -2 -67 -6 -81 -19 -81 -14 0 -17 16
-21 95 -4 96 -17 130 -39 108 -7 -7 -16 -57 -22 -113 -12 -126 -30 -128 -38
-4 -7 91 -14 124 -30 124 -17 0 -28 -40 -35 -128 -5 -65 -10 -89 -19 -86 -8 3
-14 37 -18 92 -5 95 -12 122 -32 122 -17 0 -23 -28 -31 -127 -9 -114 -29 -112
-37 5 -6 96 -13 122 -32 122 -19 0 -26 -26 -32 -122 -8 -117 -28 -119 -37 -5
-8 99 -14 127 -31 127 -20 0 -27 -27 -32 -122 -4 -56 -10 -89 -18 -92 -9 -3
-15 20 -20 89 -7 96 -24 140 -45 119 -6 -6 -14 -55 -18 -110 -4 -55 -11 -99
-17 -99 -5 0 -14 34 -18 75 -11 101 -20 135 -37 135 -20 0 -28 -37 -29 -127
-1 -69 -3 -78 -20 -78 -16 0 -19 9 -20 80 -2 88 -14 134 -33 128 -18 -6 -26
-44 -27 -130 -1 -71 -3 -78 -21 -78 -18 0 -20 7 -21 78 -1 86 -9 124 -27 130
-18 6 -30 -37 -33 -124 -3 -79 -10 -97 -36 -87 -10 4 -13 35 -13 134 l0 129
690 0 690 0 0 -129z m1162 -228 l3 -278 170 -5 c94 -3 162 -8 152 -12 -10 -5
-15 -13 -12 -18 5 -7 92 -11 258 -10 139 1 315 1 391 0 l139 0 -7 -61 c-9 -93
-33 -176 -76 -264 -128 -259 -385 -419 -697 -434 -19 -1 -16 -19 5 -24 9 -3
-58 -5 -149 -6 -142 -1 -168 -3 -173 -17 -3 -9 -6 -227 -6 -485 l0 -469 -64 0
c-35 0 -71 -3 -80 -6 -12 -5 -16 1 -16 23 0 108 -75 267 -173 367 -105 106
-260 176 -389 176 l-48 0 0 -282 0 -283 -87 2 -88 1 -3 486 -2 485 -33 4 c-30
3 -29 4 8 6 120 5 282 63 392 140 204 144 343 393 343 617 l0 54 -392 2 c-216
1 -376 3 -355 5 l37 4 0 280 0 279 475 0 475 0 2 -277z m-9762 252 c0 -8 -7
-15 -15 -15 -8 0 -15 7 -15 15 0 8 7 15 15 15 8 0 15 -7 15 -15z m7707 -127
c-2 -18 -4 -4 -4 32 0 36 2 50 4 33 2 -18 2 -48 0 -65z m100 0 c-2 -18 -4 -4
-4 32 0 36 2 50 4 33 2 -18 2 -48 0 -65z m100 0 c-2 -18 -4 -4 -4 32 0 36 2
50 4 33 2 -18 2 -48 0 -65z m-497 27 c0 -30 -4 -55 -10 -55 -11 0 -14 69 -4
94 11 27 14 18 14 -39z m96 -53 c-14 -13 -17 11 -10 60 l9 53 3 -54 c2 -29 1
-56 -2 -59z m104 53 c0 -30 -3 -55 -7 -55 -5 0 -6 25 -5 55 5 71 12 71 12 0z
m397 -27 c-2 -18 -4 -6 -4 27 0 33 2 48 4 33 2 -15 2 -42 0 -60z m107 25 c4
-34 3 -53 -4 -53 -6 0 -10 24 -10 57 0 68 5 66 14 -4z m302 -51 c-13 -12 -15
7 -8 59 l7 54 3 -54 c2 -29 1 -56 -2 -59z m101 26 c-2 -18 -4 -6 -4 27 0 33 2
48 4 33 2 -15 2 -42 0 -60z m-1207 16 c0 -24 -4 -44 -10 -44 -5 0 -10 23 -10
51 0 31 4 48 10 44 6 -3 10 -26 10 -51z m910 0 c0 -24 -4 -44 -10 -44 -5 0
-10 23 -10 51 0 31 4 48 10 44 6 -3 10 -26 10 -51z m100 6 c0 -27 -4 -50 -10
-50 -11 0 -14 59 -4 84 10 27 14 18 14 -34z m3200 -1009 l0 -980 -106 -3 c-58
-2 -108 -1 -110 1 -2 2 -4 445 -4 983 l0 978 110 0 110 0 0 -979z m250 -1 l0
-980 -115 0 -115 0 0 980 0 980 115 0 115 0 0 -980z m-502 0 l-3 -970 -560 0
-560 -1 -3 360 c-2 332 -4 360 -20 364 -9 3 3 5 28 6 189 5 413 121 552 286
103 121 171 286 185 449 l6 76 -394 1 c-217 1 -386 3 -376 6 15 4 17 22 17
199 l0 194 565 0 565 0 -2 -970z m-4000 861 c4 -85 14 -126 32 -126 19 0 28
37 29 123 1 64 3 73 19 70 14 -3 18 -18 23 -91 10 -147 50 -146 59 1 4 72 8
87 23 90 15 3 17 -6 18 -70 1 -87 10 -123 29 -123 17 0 27 36 35 128 5 48 11
67 21 67 11 0 14 -15 14 -62 0 -68 15 -138 30 -138 17 0 28 35 35 118 5 55 11
82 20 82 8 0 14 -26 18 -82 5 -86 13 -118 28 -118 17 0 28 39 35 119 9 111 29
109 38 -3 7 -95 13 -116 31 -116 18 0 24 21 31 116 9 110 29 114 38 7 8 -96
15 -123 31 -123 19 0 26 25 32 118 4 56 10 82 18 82 9 0 15 -27 20 -82 7 -83
18 -118 35 -118 15 0 30 70 30 138 0 47 3 62 14 62 10 0 16 -19 21 -67 8 -92
18 -128 35 -128 18 0 27 40 29 128 1 57 4 67 19 67 15 0 18 -11 20 -69 4 -85
14 -126 32 -126 19 0 28 37 29 123 1 63 3 72 20 72 16 0 19 -10 23 -90 7 -150
49 -151 58 -2 4 69 8 87 21 90 14 2 17 -12 21 -88 9 -150 44 -151 61 -1 7 65
14 91 23 91 10 0 14 -16 14 -57 0 -59 13 -129 25 -141 16 -16 33 34 40 113 6
81 8 85 31 85 24 0 24 0 24 -110 l0 -110 -690 0 -690 0 0 110 c0 108 0 110 23
110 21 0 23 -5 25 -69z m42 37 c0 -18 -5 -40 -10 -48 -7 -11 -10 -2 -10 33 0
26 5 47 10 47 6 0 10 -15 10 -32z m100 -14 c0 -27 -4 -43 -10 -39 -5 3 -10 24
-10 46 0 21 5 39 10 39 6 0 10 -21 10 -46z m99 -6 c-1 -45 -2 -49 -9 -23 -11
44 -11 75 0 75 6 0 9 -23 9 -52z m98 -25 c-2 -16 -4 -3 -4 27 0 30 2 43 4 28
2 -16 2 -40 0 -55z m100 -5 c-2 -18 -4 -6 -4 27 0 33 2 48 4 33 2 -15 2 -42 0
-60z m100 0 c-2 -18 -4 -6 -4 27 0 33 2 48 4 33 2 -15 2 -42 0 -60z m100 5
c-2 -16 -4 -3 -4 27 0 30 2 43 4 28 2 -16 2 -40 0 -55z m105 40 c-6 -65 -10
-70 -11 -15 0 28 3 52 7 52 4 0 6 -17 4 -37z m101 -10 c-8 -65 -13 -67 -13 -5
0 29 4 52 10 52 6 0 7 -19 3 -47z m107 13 c0 -19 -4 -38 -10 -41 -6 -4 -10 10
-10 34 0 23 5 41 10 41 6 0 10 -15 10 -34z m100 -13 c0 -35 -3 -44 -10 -33
-13 20 -13 80 0 80 6 0 10 -21 10 -47z m99 -5 c-1 -55 -5 -50 -11 15 -2 20 0
37 4 37 4 0 7 -24 7 -52z m98 -25 c-2 -16 -4 -3 -4 27 0 30 2 43 4 28 2 -16 2
-40 0 -55z m-5117 -1528 l0 -240 -105 -28 c-57 -15 -111 -30 -120 -33 -23 -9
-21 87 3 109 28 26 88 47 133 47 46 0 48 12 5 44 -29 22 -104 28 -138 12 -15
-7 -18 -3 -18 22 0 22 8 36 28 50 34 25 107 45 132 37 26 -8 35 13 16 34 -20
22 -90 44 -116 37 -11 -4 -29 -9 -41 -12 -18 -5 -20 -2 -17 27 2 27 11 36 47
56 29 15 61 23 93 23 58 0 62 15 15 48 -36 24 -104 30 -138 12 -17 -10 -19 -7
-19 24 l0 34 120 -32 120 -31 0 -240z m-163 205 c-27 -10 -55 -24 -63 -30 -11
-10 -14 -9 -14 8 0 28 26 41 80 41 l45 0 -48 -19z m3645 -318 l3 -267 80 -3
c44 -2 84 -7 89 -12 13 -13 223 -13 231 0 3 6 40 10 81 10 l74 0 2 -597 3
-598 83 -3 c45 -2 82 -7 82 -12 0 -6 15 -10 33 -10 55 0 158 -29 218 -61 146
-78 246 -220 268 -380 l8 -59 -264 0 c-161 0 -263 -4 -263 -10 0 -5 -37 -10
-82 -12 l-83 -3 -3 -81 -3 -81 -1054 -8 c-580 -4 -1313 -4 -1629 0 l-576 8 3
1221 2 1221 571 3 571 2 6 -61 c8 -76 46 -184 89 -256 72 -122 216 -244 345
-293 59 -22 185 -49 236 -50 l27 0 0 333 0 332 425 -3 425 -2 2 -268z m-3758
244 c-8 -22 -62 -35 -97 -23 -41 14 -40 23 3 19 21 -2 50 3 66 11 33 17 37 16
28 -7z m1034 -548 l2 -568 -250 0 -250 0 2 266 3 267 28 3 27 3 0 -85 0 -84
205 0 205 0 -2 198 -3 197 -200 0 -200 0 -3 -86 -3 -85 -29 4 -30 4 0 262 c0
145 3 266 7 270 4 3 115 5 247 4 l241 -3 3 -567z m3280 315 l2 -253 -265 0
-265 0 0 255 0 255 263 -2 262 -3 3 -252z m1102 253 c0 -5 -116 -71 -296 -170
l-121 -66 -189 104 c-104 58 -198 112 -209 120 -18 14 22 15 398 16 229 0 417
-2 417 -4z m-690 -117 c52 -29 126 -70 165 -91 38 -21 71 -40 73 -42 2 -2 -93
-57 -210 -121 -117 -65 -216 -120 -220 -122 -5 -2 -8 107 -8 242 l0 246 53
-29 c28 -17 95 -54 147 -83z m746 -376 c-4 -4 -414 222 -429 236 -5 5 90 63
210 129 l218 121 3 -241 c1 -133 1 -243 -2 -245z m-5321 397 c3 -5 -2 -10 -12
-10 -10 0 -37 -9 -61 -20 -40 -18 -43 -18 -40 -3 6 33 97 59 113 33z m-145
-80 c0 -21 -50 -43 -87 -37 -51 9 -66 27 -17 21 24 -3 49 1 64 10 31 17 40 19
40 6z m6048 -16 c95 -31 198 -99 256 -167 75 -89 136 -232 136 -322 0 -23 7
-50 15 -61 8 -10 15 -34 15 -51 l0 -33 659 0 c363 0 662 -4 665 -8 11 -18 11
-1141 0 -1152 -7 -7 -332 -9 -1060 -8 l-1049 3 0 580 0 580 90 5 90 5 3 35 c2
19 8 39 13 44 5 6 9 132 9 293 l0 283 41 0 c22 0 75 -12 117 -26z m-5898 -74
c0 -5 -10 -10 -23 -10 -12 0 -39 -9 -60 -20 -30 -16 -37 -17 -37 -6 0 8 10 22
22 30 25 18 98 22 98 6z m5030 -107 c80 -45 166 -91 193 -104 26 -13 47 -27
47 -32 0 -5 -7 -6 -16 -3 -9 3 -201 6 -427 6 l-412 0 215 119 c191 106 217
118 235 107 11 -7 85 -49 165 -93z m-5200 5 c-26 -21 -54 -22 -95 -3 l-30 14
35 -5 c23 -3 47 2 70 13 40 21 54 8 20 -19z m990 -198 l0 -169 -175 -3 -175
-3 0 73 c0 70 1 72 25 72 20 0 25 5 25 25 0 20 -5 25 -25 25 -24 0 -25 2 -25
75 l0 75 175 0 175 0 0 -170z m-650 -210 l0 -240 -150 0 -150 0 0 240 0 240
150 0 150 0 0 -240z m5150 -714 l0 -954 -239 -7 c-132 -4 -345 -4 -475 0
l-236 7 0 79 0 79 255 0 255 0 0 53 c0 167 -123 355 -287 440 -58 31 -173 66
-215 67 -5 0 -8 268 -8 595 l0 595 475 0 475 0 0 -954z m-8330 773 l0 -109
-40 -26 c-22 -15 -40 -29 -40 -33 0 -3 18 -19 40 -35 l40 -30 0 -612 0 -612
-40 -32 -40 -32 52 -46 c54 -49 128 -137 128 -153 0 -5 -43 -9 -95 -9 l-95 0
0 88 c-1 136 -1 1736 -1 1743 1 3 21 6 46 6 l45 1 0 -109z m70 63 c15 -54 13
-68 -15 -99 l-24 -28 -1 81 c0 44 3 84 6 87 12 11 23 -3 34 -41z m548 -234 l2
-278 -271 0 c-243 0 -271 2 -265 16 3 9 6 24 6 35 0 27 15 24 28 -6 16 -35 28
-31 53 18 33 64 105 153 149 184 22 15 40 33 40 38 0 6 -17 23 -38 38 -45 33
-105 107 -141 173 -15 25 -31 47 -36 48 -6 0 -16 -13 -24 -29 l-15 -30 -7 25
c-4 14 -7 30 -8 37 -1 9 63 11 262 10 l262 -2 3 -277z m-338 41 l38 -31 -62
-61 c-33 -34 -72 -83 -86 -109 -14 -27 -27 -48 -30 -48 -3 0 -18 23 -34 51
-15 28 -52 75 -82 105 l-54 54 60 61 c33 33 72 82 86 108 l27 48 50 -74 c27
-40 66 -87 87 -104z m-204 -217 c-3 -10 -10 -36 -16 -59 -18 -69 -30 -50 -30
45 l1 87 25 -28 c13 -16 23 -36 20 -45z m3104 -138 c0 -101 -3 -153 -10 -149
-5 3 -10 20 -10 36 0 17 -5 40 -12 52 -6 12 -14 36 -18 52 -4 23 -12 31 -33
33 l-27 3 0 -80 c0 -75 -1 -80 -22 -83 -23 -3 -23 -6 -26 -150 l-3 -148 26 0
c25 0 25 -1 25 -80 l0 -80 30 0 c26 0 30 4 30 28 1 15 7 38 15 52 8 14 15 36
15 50 0 14 5 32 10 40 6 10 10 -37 10 -142 l0 -158 -150 0 -150 0 0 440 0 440
150 0 150 0 0 -156z m270 -195 l0 -230 -27 3 -28 3 -3 215 c-1 118 0 220 2
227 3 7 17 13 31 13 l25 0 0 -231z m235 209 c9 -20 17 -22 83 -21 39 1 77 2
82 2 6 1 10 10 10 21 0 11 7 20 15 20 13 0 15 -32 15 -230 l0 -230 -205 0
-205 0 0 230 0 230 98 0 c90 0 98 -2 107 -22z m-3620 -30 c21 -96 26 -134 26
-229 0 -142 -27 -299 -52 -299 -5 0 -9 114 -9 275 0 236 2 275 15 275 8 0 17
-10 20 -22z m555 -253 l0 -275 -270 0 c-148 0 -270 1 -270 3 0 1 7 27 16 57
31 110 30 350 -2 468 l-6 22 266 0 266 0 0 -275z m2477 -157 c-1 -79 -3 -15
-3 142 0 157 2 221 3 143 2 -79 2 -207 0 -285z m-27 136 c0 -95 -3 -114 -15
-114 -12 0 -15 19 -15 113 0 63 3 117 6 120 18 17 24 -14 24 -119z m7730 -147
l0 -228 -52 3 -53 3 -3 215 c-1 118 -1 219 2 225 2 5 27 10 55 10 l51 0 0
-228z m60 207 c0 -8 -7 -14 -15 -14 -15 0 -21 21 -9 33 10 9 24 -2 24 -19z
m140 -209 l0 -225 -55 0 -55 0 0 225 0 225 55 0 55 0 0 -225z m-140 0 c0 -140
-2 -165 -15 -165 -13 0 -15 25 -15 165 0 140 2 165 15 165 13 0 15 -25 15
-165z m-6972 -410 l2 -395 -250 0 -250 0 0 393 c0 217 2 396 5 399 3 3 115 4
248 1 l242 -3 3 -395z m-3824 258 c14 -48 26 -144 26 -203 0 -58 -3 -70 -30
-100 l-29 -35 -1 178 c0 147 2 177 14 177 8 0 17 -8 20 -17z m556 -234 c0
-235 -1 -251 -17 -244 -24 9 -103 22 -180 30 -46 5 -73 15 -102 36 -49 35
-114 115 -147 182 -15 29 -30 47 -38 44 -9 -4 -16 18 -24 76 -6 45 -14 92 -18
105 l-6 22 266 0 266 0 0 -251z m580 3 l0 -249 -62 15 c-90 20 -315 20 -401
-1 -38 -10 -74 -17 -80 -17 -9 0 -11 62 -10 247 1 137 2 249 3 251 0 1 124 2
275 2 l275 0 0 -248z m580 32 l0 -215 -58 31 c-57 30 -153 113 -186 160 l-17
25 -17 -25 c-30 -48 -124 -130 -188 -166 -35 -20 -64 -37 -64 -39 0 -2 13 -12
30 -22 l30 -19 -40 -11 -40 -10 0 253 0 254 275 0 275 0 0 -216z m9080 140 c0
-8 -7 -14 -15 -14 -15 0 -21 21 -9 33 10 9 24 -2 24 -19z m-7680 -349 l0 -245
-150 0 -150 0 0 245 0 245 150 0 150 0 0 -245z m7333 173 c-2 -5 -12 -8 -21
-8 -9 0 -214 -42 -455 -93 l-438 -93 -132 28 c-455 97 -746 158 -760 158 -9 0
-18 3 -20 8 -3 4 408 7 913 7 505 0 916 -3 913 -7z m-10347 -40 c10 -24 48
-73 84 -109 l65 -67 -47 -46 c-49 -48 -108 -127 -108 -145 0 -25 -21 -8 -53
42 -19 28 -57 75 -86 102 l-51 50 58 61 c31 33 69 82 82 107 14 26 28 47 31
47 3 0 15 -19 25 -42z m8872 -63 c251 -53 464 -99 472 -102 12 -4 -760 -175
-932 -207 l-38 -7 0 212 c0 208 0 211 20 206 12 -3 226 -49 478 -102z m1622
-105 c0 -115 -4 -210 -9 -210 -7 0 -775 163 -916 194 -33 7 -53 16 -45 19 17
6 938 204 958 206 9 1 12 -47 12 -209z m-9083 133 c32 -32 80 -69 106 -83 26
-14 47 -28 47 -31 0 -3 -12 -11 -26 -18 -39 -17 -137 -96 -162 -130 l-22 -30
-52 51 c-29 29 -78 68 -109 88 l-56 36 44 24 c25 13 72 52 106 86 34 34 63 62
63 63 1 0 28 -25 61 -56z m203 -147 c0 -19 -4 -22 -25 -18 -14 2 -25 8 -25 12
0 5 32 25 48 29 1 1 2 -10 2 -23z m8260 -96 c234 -50 430 -92 435 -94 6 -3
-388 -4 -875 -4 -487 0 -878 2 -870 5 51 14 840 182 860 182 14 1 217 -40 450
-89z m-9486 58 c33 -7 61 -19 64 -25 3 -10 -36 -13 -174 -13 l-178 0 34 30
c34 30 37 31 115 25 44 -3 107 -11 139 -17z m585 -1 c30 -6 56 -18 59 -25 3
-9 -58 -12 -279 -12 -157 0 -279 4 -274 9 13 11 85 29 160 41 74 11 262 4 334
-13z m638 -24 c3 -8 -22 -12 -72 -15 -42 -2 -79 -1 -81 1 -2 2 11 14 28 26 29
20 36 21 77 10 24 -6 46 -16 48 -22z m-397 7 l25 -20 -87 0 c-95 0 -113 11
-45 27 63 16 80 14 107 -7z m96 -90 c16 -22 34 -39 39 -39 6 0 24 18 40 39
l30 39 98 1 97 0 0 -45 0 -45 -795 0 c-437 0 -795 3 -795 8 0 4 11 24 25 45
l26 37 602 0 603 0 30 -40z m6604 -140 l0 -49 -225 -3 -225 -3 0 52 0 52 108
3 c59 2 160 2 225 0 l117 -3 0 -49z m-5150 0 l0 -50 -225 0 -225 0 0 50 0 50
225 0 225 0 0 -50z m3090 0 l0 -50 -745 0 -745 0 0 50 0 50 745 0 745 0 0 -50z
m-3510 -95 c0 -8 -7 -15 -15 -15 -8 0 -15 7 -15 15 0 8 7 15 15 15 8 0 15 -7
15 -15z m360 0 c0 -13 -25 -15 -165 -15 -140 0 -165 2 -165 15 0 13 25 15 165
15 140 0 165 -2 165 -15z m60 0 c0 -8 -7 -15 -15 -15 -8 0 -15 7 -15 15 0 8 7
15 15 15 8 0 15 -7 15 -15z m1640 0 c0 -8 -9 -15 -20 -15 -20 0 -26 11 -13 23
12 13 33 7 33 -8z m648 -2 c3 -10 -63 -13 -307 -13 -271 0 -311 2 -311 15 0
13 38 15 307 13 234 -2 307 -6 311 -15z m92 2 c0 -10 -11 -15 -35 -15 -24 0
-35 5 -35 15 0 10 11 15 35 15 24 0 35 -5 35 -15z m650 0 c0 -13 -41 -15 -310
-15 -269 0 -310 2 -310 15 0 13 41 15 310 15 269 0 310 -2 310 -15z m60 0 c0
-8 -7 -15 -15 -15 -8 0 -15 7 -15 15 0 8 7 15 15 15 8 0 15 -7 15 -15z m1640
0 c0 -8 -7 -15 -15 -15 -8 0 -15 7 -15 15 0 8 7 15 15 15 8 0 15 -7 15 -15z
m360 0 c0 -13 -25 -15 -165 -15 -140 0 -165 2 -165 15 0 13 25 15 165 15 140
0 165 -2 165 -15z m60 0 c0 -8 -7 -15 -15 -15 -8 0 -15 7 -15 15 0 8 7 15 15
15 8 0 15 -7 15 -15z m-5150 -100 l0 -55 -225 0 -225 0 0 55 0 55 225 0 225 0
0 -55z m3090 0 l0 -55 -745 0 -745 0 0 55 0 55 745 0 745 0 0 -55z m2060 0 l0
-55 -225 0 -225 0 0 55 0 55 225 0 225 0 0 -55z"/>
<path d="M3364 12919 c-34 -13 -55 -28 -62 -45 -7 -15 -12 -78 -12 -154 l0
-130 -30 0 -30 0 0 -115 0 -115 -129 0 c-71 0 -141 -4 -156 -10 -94 -36 -94
-344 0 -380 15 -6 85 -10 156 -10 l129 0 0 -110 0 -110 30 0 30 0 0 -142 c0
-79 4 -148 8 -155 4 -7 30 -22 57 -35 39 -18 68 -23 130 -23 62 0 91 5 130 23
27 13 53 28 57 35 4 7 8 76 8 155 l0 142 85 0 85 0 0 -145 c0 -134 2 -146 21
-164 32 -29 139 -55 202 -48 73 7 153 43 161 70 3 12 6 82 6 155 l0 132 30 0
30 0 0 110 0 110 129 0 c71 0 141 4 156 10 69 26 96 223 45 325 -30 60 -43 64
-217 64 l-113 1 0 115 0 115 -32 0 -33 0 0 139 c0 160 -4 169 -87 197 -37 12
-72 15 -132 12 -91 -6 -148 -28 -165 -65 -6 -13 -11 -81 -11 -153 l0 -130 -77
0 -78 0 3 117 c2 67 -1 134 -7 155 -10 32 -18 39 -67 57 -72 27 -180 27 -250
0z m200 -14 c77 -20 79 -22 60 -55 -16 -27 -18 -27 -50 -14 -18 8 -56 14 -84
14 -28 0 -66 -6 -84 -14 -32 -13 -34 -13 -50 15 -17 29 -17 29 11 40 28 11 95
26 123 28 9 1 42 -6 74 -14z m584 -11 c36 -15 36 -14 21 -48 -11 -23 -13 -23
-45 -10 -43 18 -125 18 -168 0 -32 -13 -34 -13 -50 15 -17 29 -17 29 11 40 77
29 163 31 231 3z m-571 -94 c45 -27 54 -51 51 -128 l-3 -67 -135 0 -135 0 -3
72 c-2 40 2 81 7 91 27 50 157 70 218 32z m548 4 c43 -20 57 -55 53 -135 l-3
-64 -135 0 -135 0 -3 73 c-3 81 8 107 55 128 40 18 129 17 168 -2z m148 -567
c-1 -177 -2 -357 -2 -400 l-1 -78 -507 3 -508 3 -3 398 -2 397 512 0 513 0 -2
-323z m-1289 25 c-20 -49 -27 -104 -17 -144 6 -24 14 -51 17 -60 6 -12 0 -21
-22 -32 l-30 -16 -16 47 c-9 26 -16 72 -16 103 0 31 7 77 16 103 l16 47 30
-16 c22 -11 28 -20 22 -32z m1643 -77 c5 -62 -7 -128 -29 -158 -12 -15 -14
-15 -35 1 -22 17 -22 18 -6 71 13 47 14 62 2 110 -18 74 -18 74 11 88 22 11
25 10 38 -20 8 -18 16 -59 19 -92z m-1417 -25 l0 -140 -74 0 c-87 0 -116 17
-134 78 -16 52 -15 95 2 136 22 52 50 66 133 66 l73 0 0 -140z m1283 122 c24
-27 47 -87 47 -124 -1 -43 -33 -113 -58 -127 -12 -6 -52 -11 -91 -11 l-71 0 0
140 0 140 78 0 c63 0 82 -4 95 -18z m-871 -622 c5 -92 -6 -118 -55 -140 -66
-31 -150 -22 -195 20 -19 18 -22 31 -22 100 l0 80 134 0 134 0 4 -60z m558
-18 c0 -69 -3 -81 -22 -99 -72 -64 -213 -51 -244 23 -14 34 -19 135 -7 147 3
4 66 7 140 7 l133 0 0 -78z m-728 -164 c38 -9 57 -7 99 6 28 10 52 16 54 14 5
-6 25 -47 25 -51 0 -3 -21 -12 -47 -21 -53 -18 -131 -21 -183 -6 -57 16 -63
23 -49 54 10 21 17 26 33 21 12 -4 42 -11 68 -17z m549 0 c36 -8 56 -7 100 6
53 15 54 15 72 -5 25 -31 22 -35 -30 -53 -71 -24 -183 -18 -231 12 -19 13 6
65 27 57 9 -4 37 -11 62 -17z"/>
<path d="M8710 13125 c0 -8 -9 -15 -20 -15 -19 0 -20 -7 -20 -100 l0 -100 198
2 197 3 1 93 c0 89 -1 94 -23 103 -13 5 -23 13 -23 19 0 6 -56 10 -155 10
-131 0 -155 -2 -155 -15z m330 -140 l0 -45 -174 0 -173 0 1 45 1 45 172 0 173
0 0 -45z"/>
<path d="M12970 12909 l0 -160 -427 3 c-374 4 -444 7 -558 25 -203 33 -229 35
-250 19 -17 -13 -18 -19 -6 -112 9 -73 11 -262 7 -714 -2 -338 -8 -638 -11
-667 -7 -50 -6 -52 18 -58 14 -4 108 6 209 21 172 26 208 28 601 31 l417 5 0
-166 0 -166 163 2 162 3 3 162 2 162 -62 4 c-58 3 -57 3 20 5 l82 2 -2 713 -3
712 -70 6 c-66 5 -67 6 -17 7 l52 2 0 160 0 160 -165 0 -165 0 0 -161z m309 1
l-1 -140 -144 0 -144 0 0 140 0 140 145 0 146 0 -2 -140z m-1315 -149 c76 -11
141 -22 144 -25 3 -3 -66 -6 -154 -5 -152 1 -159 0 -176 -21 -10 -12 -19 -30
-19 -39 -2 -20 -18 56 -18 87 -1 19 4 22 42 22 23 0 105 -9 181 -19z m778
-678 c2 -346 2 -655 0 -688 l-3 -60 -467 2 c-426 3 -468 4 -479 20 -17 22 -19
1303 -3 1334 10 18 26 19 480 19 l470 0 2 -627z m578 -58 l-1 -684 -217 -3
c-119 -2 -244 -2 -277 0 l-60 4 3 671 c1 370 2 678 2 685 0 9 62 12 275 12
l275 0 0 -685z m-1520 -705 c14 -8 69 -10 161 -8 143 3 183 -4 82 -15 -32 -4
-109 -14 -172 -22 -68 -9 -118 -12 -124 -6 -5 5 -6 34 -2 66 l8 58 13 -31 c7
-17 22 -36 34 -42z m1479 -179 l-1 -139 -26 -3 c-15 -2 -80 -2 -144 -1 l-118
4 0 139 0 139 145 0 146 0 -2 -139z"/>
<path d="M12920 12609 c0 -26 -3 -29 -23 -24 l-23 6 0 -180 0 -180 23 5 c20 5
23 2 23 -20 0 -26 0 -27 53 -19 65 9 95 10 174 1 l62 -8 -7 53 c-9 70 -9 236
1 326 8 69 7 73 -10 66 -29 -13 -196 -18 -236 -7 -37 10 -37 10 -37 -19z m256
-92 c-6 -58 -6 -125 1 -195 6 -59 9 -108 8 -110 -1 -1 -20 1 -41 6 l-39 8 0
180 0 180 -82 -4 c-66 -4 -83 -2 -83 9 0 11 25 14 123 14 l122 0 -9 -88z m-98
-105 l0 -148 -92 0 -91 0 0 148 0 148 91 0 92 0 0 -148z m-13 -179 c-16 -2
-51 -8 -77 -12 -38 -7 -48 -5 -48 5 0 11 18 14 78 13 42 -1 64 -4 47 -6z"/>
<path d="M12920 11834 c0 -22 -4 -26 -23 -22 l-23 5 0 -179 0 -179 23 4 c20 4
23 0 23 -24 0 -27 2 -28 33 -21 42 9 183 9 225 0 l34 -8 -9 68 c-10 85 -10
227 0 315 l8 69 -43 -9 c-53 -10 -149 -10 -205 0 -42 7 -43 6 -43 -19z m259
-54 c-10 -58 -10 -232 0 -290 l7 -45 -123 0 c-98 0 -123 3 -123 14 0 11 16 13
83 9 l82 -5 0 174 0 174 -79 -3 c-47 -2 -80 1 -82 7 -3 6 41 10 119 10 l123 0
-7 -45z m-101 -145 l0 -150 -92 0 -91 0 0 150 0 151 91 -1 92 0 0 -150z"/>
<path d="M6130 12520 l0 -410 155 0 155 0 0 99 0 100 29 -9 c35 -10 43 -5 35
26 -6 22 -4 23 27 17 29 -5 32 -4 25 12 -6 18 -10 298 -4 327 2 9 -6 12 -26
10 -26 -3 -28 -1 -22 24 7 26 6 27 -28 21 l-35 -6 -3 97 -3 97 -152 3 -153 3
0 -411z m287 297 c2 -82 1 -85 -22 -91 -13 -3 -58 -1 -100 5 -42 6 -79 8 -81
6 -2 -2 1 -39 7 -83 11 -76 7 -284 -7 -331 -6 -22 -6 -22 100 -16 l107 6 -3
-89 -3 -89 -132 -3 -133 -3 0 388 0 388 132 -2 133 -2 2 -84z m-126 -111 c25
-5 26 -9 29 -78 5 -99 5 -121 0 -208 l-5 -75 83 4 c63 2 82 0 82 -11 0 -10
-26 -13 -117 -13 l-118 0 0 196 c0 126 4 195 10 194 6 -2 22 -6 36 -9z m189
-1 c0 -12 -15 -15 -77 -14 l-78 2 64 8 c34 4 68 10 75 13 6 2 12 5 14 5 1 1 2
-6 2 -14z m45 -186 l0 -149 -90 0 -90 0 0 148 0 148 90 1 90 0 0 -148z"/>
<path d="M9760 12561 c0 -75 -1 -80 -22 -83 -23 -3 -23 -5 -23 -148 0 -143 0
-145 23 -148 21 -3 22 -8 22 -83 l0 -79 29 0 c23 0 30 5 34 28 10 47 29 116
38 134 13 25 11 285 -1 293 -5 3 -10 18 -10 33 0 15 -7 40 -15 56 -8 15 -15
39 -15 52 0 20 -5 24 -30 24 l-30 0 0 -79z m0 -231 c0 -73 -4 -120 -10 -120
-6 0 -10 47 -10 120 0 73 4 120 10 120 6 0 10 -47 10 -120z"/>
<path d="M10150 12348 c-1 -13 -7 -34 -15 -48 -8 -14 -14 -39 -15 -57 0 -17
-4 -35 -10 -38 -6 -4 -10 -63 -10 -146 0 -86 4 -139 10 -139 6 0 10 -17 10
-38 0 -21 7 -47 15 -58 8 -10 15 -31 15 -46 0 -24 4 -28 30 -28 l30 0 0 79 c0
75 1 80 23 83 22 3 22 5 22 148 0 143 0 145 -22 148 -22 3 -23 8 -23 83 l0 79
-30 0 c-24 0 -30 -4 -30 -22z m-3 -130 c-3 -7 -5 -2 -5 12 0 14 2 19 5 13 2
-7 2 -19 0 -25z m0 -200 c-2 -35 -3 -9 -3 57 0 66 1 94 3 63 2 -32 2 -86 0
-120z m83 42 c0 -73 -4 -120 -10 -120 -6 0 -10 47 -10 120 0 73 4 120 10 120
6 0 10 -47 10 -120z m-78 -157 c-4 -55 -12 -54 -12 2 0 27 3 45 7 41 4 -4 6
-23 5 -43z m25 -105 c-3 -8 -6 -5 -6 6 -1 11 2 17 5 13 3 -3 4 -12 1 -19z"/>
<path d="M6265 10561 c-11 -5 -33 -23 -50 -41 l-30 -31 -3 -471 c-3 -558 -4
-550 86 -638 63 -61 132 -90 214 -90 103 0 216 66 265 154 l28 51 3 483 c3
528 3 523 -56 567 -25 18 -45 20 -232 22 -113 1 -214 -2 -225 -6z m457 -49
l33 -32 3 -462 c3 -510 1 -529 -59 -601 -41 -50 -92 -81 -157 -97 -125 -29
-267 39 -319 155 -16 36 -18 82 -21 510 -2 515 -4 501 58 543 34 23 39 23 232
20 l198 -3 32 -33z"/>
<path d="M6463 10439 c-31 -11 -45 -42 -33 -73 11 -29 49 -43 78 -27 58 31 16
123 -45 100z m52 -39 c14 -44 -44 -69 -65 -29 -9 15 -8 24 1 35 18 21 57 18
64 -6z"/>
<path d="M7165 10647 c-64 -22 -100 -43 -133 -81 -80 -91 -42 -210 86 -273 51
-25 68 -28 158 -28 92 0 105 3 159 30 32 17 72 47 89 68 27 34 31 47 31 97 0
50 -4 63 -31 97 -17 21 -56 51 -87 67 -46 23 -71 29 -144 32 -56 3 -102 -1
-128 -9z m219 -31 c87 -26 146 -89 146 -156 0 -97 -110 -170 -255 -170 -151 0
-255 73 -255 180 0 35 6 47 44 85 29 28 61 49 93 59 62 19 167 20 227 2z"/>
<path d="M7188 10607 c-26 -8 -65 -26 -88 -41 -109 -72 -83 -183 56 -242 26
-11 67 -17 121 -18 71 0 89 4 139 30 70 36 99 72 99 124 0 52 -29 89 -96 123
-66 33 -162 43 -231 24z m217 -47 c50 -24 85 -69 85 -108 0 -58 -114 -122
-215 -122 -109 0 -215 64 -215 130 0 42 53 94 118 115 65 21 167 14 227 -15z"/>
<path d="M7242 10488 c-28 -28 -3 -72 39 -66 30 4 47 33 33 56 -14 21 -55 27
-72 10z m43 -38 c-5 -8 -11 -8 -17 -2 -6 6 -7 16 -3 22 5 8 11 8 17 2 6 -6 7
-16 3 -22z"/>
<path d="M3665 9375 c-27 -8 -53 -14 -56 -15 -3 0 -15 -9 -27 -20 -21 -20 -22
-30 -22 -165 l0 -145 -115 0 -115 0 0 -30 0 -30 -138 0 c-106 0 -142 -3 -159
-15 -56 -39 -76 -217 -34 -310 12 -27 27 -53 34 -57 7 -4 76 -8 155 -8 l142 0
0 -85 0 -85 -132 0 c-73 0 -142 -3 -154 -6 -41 -11 -82 -148 -69 -233 8 -52
40 -131 58 -143 7 -4 76 -8 155 -8 l142 0 0 -30 0 -29 113 -3 112 -3 5 -148
c6 -168 4 -166 94 -192 99 -30 227 -10 274 41 21 24 22 34 22 165 l0 139 115
0 115 0 0 30 0 30 136 0 c74 0 143 4 153 10 33 17 64 108 65 190 0 60 -5 86
-26 131 -31 67 -36 69 -209 69 l-119 0 0 75 0 75 136 0 c74 0 143 4 153 10 31
16 64 108 65 180 1 87 -34 185 -72 198 -15 5 -84 7 -154 5 l-128 -5 0 36 0 36
-115 0 -115 0 0 136 c0 78 -5 144 -11 156 -27 51 -180 81 -274 53z m184 -32
c28 -9 51 -19 51 -22 0 -3 -9 -17 -19 -30 -16 -21 -20 -22 -42 -11 -32 18
-126 18 -167 1 -30 -12 -34 -12 -47 5 -21 28 -18 40 13 52 66 26 142 28 211 5z
m-40 -83 c19 -5 45 -19 58 -32 20 -19 23 -31 23 -100 l0 -78 -140 0 -140 0 0
65 c0 40 6 78 15 95 9 17 17 30 18 30 1 0 20 7 42 15 48 17 79 18 124 5z m249
-259 l92 -1 0 -510 0 -510 -395 0 -395 0 0 510 0 509 118 3 c64 2 200 2 302 1
102 -1 227 -2 278 -2z m-973 -125 c-15 -44 -17 -157 -5 -187 11 -26 10 -31 -6
-44 -11 -8 -24 -15 -31 -15 -36 -1 -52 197 -20 257 16 30 19 32 43 21 19 -9
24 -17 19 -32z m223 -103 l-3 -138 -45 -3 c-101 -7 -141 17 -160 98 -14 59 0
121 35 156 21 21 33 24 100 24 l76 0 -3 -137z m1064 120 c48 -55 57 -155 19
-216 -27 -43 -36 -47 -122 -47 l-69 0 0 140 0 140 78 0 c63 0 82 -4 94 -17z
m119 -15 c19 -47 17 -174 -4 -222 -16 -37 -18 -38 -39 -23 -16 10 -22 23 -20
38 14 95 13 161 -3 185 -9 14 -15 27 -13 28 12 10 45 25 54 26 6 0 18 -15 25
-32z m5 -575 c19 -64 15 -138 -10 -197 -15 -37 -15 -37 -41 -20 -18 12 -24 22
-19 33 14 32 16 151 3 182 -11 29 -11 33 12 49 13 10 27 16 31 14 4 -3 15 -30
24 -61z m-1431 45 c22 -10 25 -16 19 -37 -21 -79 -21 -114 0 -192 6 -21 3 -27
-20 -38 -22 -10 -29 -10 -35 1 -17 26 -31 123 -25 167 6 41 26 111 33 111 1 0
14 -5 28 -12z m1296 -5 c70 -42 70 -215 0 -253 -11 -5 -51 -10 -90 -10 l-71 0
0 140 0 140 66 0 c45 0 75 -6 95 -17z m-1051 -128 l0 -135 -79 0 c-74 0 -81 2
-100 26 -48 62 -48 169 1 222 19 19 31 22 100 22 l78 0 0 -135z m580 -353 c0
-86 -13 -108 -73 -131 -68 -26 -178 4 -197 54 -11 30 -14 138 -3 148 3 4 66 7
140 7 l133 0 0 -78z m-177 -165 c45 -11 86 -5 138 17 22 10 58 -42 38 -55 -49
-32 -176 -38 -239 -13 -43 17 -47 24 -28 54 8 13 19 18 28 14 8 -4 36 -12 63
-17z"/>
<path d="M12558 9330 c-5 -85 2 -150 18 -150 8 0 17 -7 20 -15 5 -12 32 -15
159 -15 127 0 154 3 159 15 3 8 12 15 21 15 12 0 15 17 15 100 l0 100 -194 0
-194 0 -4 -50z m372 -25 l0 -45 -175 0 -175 0 0 45 0 45 175 0 175 0 0 -45z"/>
<path d="M7590 5921 c-29 -11 -60 -27 -67 -37 -9 -13 -13 -58 -13 -156 l0
-138 -30 0 -30 0 0 -115 0 -115 -142 0 c-79 0 -148 -4 -155 -8 -22 -14 -55
-103 -60 -162 -7 -71 27 -194 57 -210 10 -5 82 -10 159 -10 l140 0 3 -117 3
-118 530 0 530 0 3 117 3 117 152 3 152 3 25 50 c50 99 22 311 -43 329 -12 3
-82 6 -154 6 l-133 0 0 115 0 115 -30 0 -30 0 0 136 c0 74 -4 144 -10 154 -15
29 -111 60 -185 60 -74 0 -170 -31 -185 -60 -6 -10 -10 -80 -10 -154 l0 -136
-85 0 -85 0 0 140 c0 162 -3 168 -91 194 -70 21 -152 20 -219 -3z m211 -22
c49 -17 54 -25 36 -53 -16 -24 -18 -25 -52 -11 -42 18 -108 18 -157 1 -35 -13
-38 -12 -53 11 -9 13 -13 28 -10 33 17 27 173 40 236 19z m560 0 c49 -17 54
-25 36 -53 -16 -24 -18 -25 -52 -11 -45 19 -116 19 -162 0 -20 -8 -37 -14 -38
-13 -13 16 -25 51 -20 56 28 29 173 42 236 21z m-554 -106 c26 -19 28 -25 31
-107 l3 -86 -136 0 -135 0 0 78 c0 84 7 100 55 126 42 23 145 17 182 -11z
m527 17 c54 -20 66 -43 66 -130 l0 -80 -135 0 -135 0 0 83 c0 90 7 105 60 126
33 13 112 14 144 1z m162 -634 c1 -208 -1 -387 -3 -397 -5 -19 -23 -19 -510
-17 l-504 3 0 395 c1 217 1 396 1 398 0 1 228 1 508 0 l507 -3 1 -379z m-1306
116 c18 -15 21 -22 12 -38 -25 -48 -24 -126 4 -198 7 -19 -47 -41 -58 -24 -30
48 -36 160 -12 231 18 52 22 55 54 29z m1644 -29 c25 -72 18 -183 -13 -232 -7
-11 -13 -11 -32 -1 -13 7 -25 14 -27 15 -1 1 5 21 13 45 19 53 18 93 0 145
-14 38 -14 41 6 58 31 25 35 22 53 -30z m-1406 -100 l-3 -138 -70 3 c-95 3
-104 7 -126 55 -31 70 -22 146 23 195 19 19 31 22 100 22 l79 0 -3 -137z
m1290 115 c47 -51 55 -128 20 -198 l-23 -45 -87 -3 -88 -3 0 136 0 135 78 0
c69 0 81 -3 100 -22z"/>
<path d="M6332 6598 c-18 -18 -15 -43 8 -63 18 -17 21 -17 45 -1 28 18 30 28
15 57 -12 21 -50 25 -68 7z"/>
<path d="M6446 5869 c-54 -43 -19 -149 49 -149 33 0 75 42 75 75 0 38 -26 82
-52 89 -36 9 -43 8 -72 -15z m84 -28 c24 -45 6 -91 -36 -91 -27 0 -46 23 -46
55 0 14 5 32 12 40 18 21 57 19 70 -4z"/>
<path d="M6257 5852 c-21 -23 -22 -76 -1 -96 35 -36 104 -3 104 49 0 54 -69
85 -103 47z m68 -47 c0 -35 -31 -47 -51 -20 -18 25 0 57 29 53 17 -2 22 -10
22 -33z"/>
<path d="M6241 5664 c-42 -54 -11 -134 53 -134 43 0 65 18 75 61 13 58 -18 99
-75 99 -23 0 -39 -8 -53 -26z m84 -8 c35 -26 15 -106 -27 -106 -17 0 -48 41
-48 64 0 14 10 32 22 40 27 19 29 19 53 2z"/>
<path d="M6452 5657 c-29 -31 -28 -62 3 -93 26 -25 52 -26 83 -2 16 13 16 82
-1 96 -28 24 -62 24 -85 -1z m68 -27 c20 -38 -19 -77 -48 -48 -23 23 -7 68 25
68 7 0 17 -9 23 -20z"/>
<path d="M0 445 l0 -445 8000 0 8000 0 0 445 0 445 -8000 0 -8000 0 0 -445z
m674 251 c131 -77 184 -264 114 -406 -26 -52 -63 -89 -76 -75 -4 3 6 41 21 83
15 42 27 95 27 118 0 81 -74 183 -156 215 -44 16 -136 14 -174 -6 -88 -46
-136 -149 -111 -239 32 -117 145 -177 241 -128 103 52 107 208 5 242 -91 30
-165 -82 -95 -145 16 -15 22 -16 35 -5 9 7 14 18 12 24 -8 20 12 56 31 56 47
0 54 -77 11 -116 -27 -24 -99 -23 -137 2 -15 10 -29 18 -32 17 -3 -1 -6 6 -7
15 -1 9 -5 40 -9 69 -5 43 -3 58 17 92 52 93 194 108 266 30 41 -45 66 -117
60 -172 -15 -120 -116 -207 -241 -207 -155 0 -256 108 -256 274 0 186 125 300
321 293 72 -2 93 -7 133 -31z m574 -181 c2 -72 -2 -146 -7 -166 -17 -56 -52
-82 -111 -83 -43 -1 -54 3 -82 32 -31 30 -33 37 -33 100 0 51 5 73 20 94 37
49 108 66 120 28 7 -23 -10 -50 -30 -50 -28 0 -58 -36 -57 -69 2 -65 61 -93
102 -49 18 20 20 35 20 153 0 73 3 135 7 139 4 4 16 6 28 4 19 -3 20 -11 23
-133z m1887 100 c0 -27 -3 -30 -30 -30 -21 0 -31 5 -33 18 -6 33 6 49 35 45
24 -3 28 -8 28 -33z m-285 -46 c0 -28 0 -28 73 -31 l72 -3 0 -30 0 -30 -72 -3
-73 -3 0 -47 c0 -87 62 -127 86 -54 15 46 29 58 50 41 21 -17 14 -82 -13 -111
-44 -49 -122 -46 -154 6 -16 26 -19 51 -19 162 0 72 3 133 6 136 3 3 14 4 25
1 13 -4 19 -14 19 -34z m-1405 -59 c0 -16 -8 -29 -24 -36 -36 -18 -41 -32 -41
-115 0 -80 -13 -108 -45 -95 -12 4 -15 24 -15 94 0 110 11 145 53 166 45 22
72 17 72 -14z m251 5 c35 -23 29 -54 -21 -109 -38 -40 -48 -46 -60 -36 -21 17
-19 42 5 68 25 26 25 32 2 32 -48 0 -72 -81 -36 -121 13 -14 31 -19 75 -19 73
0 89 -6 89 -35 0 -29 -16 -35 -96 -35 -59 0 -67 3 -101 34 -33 30 -37 39 -41
92 -3 50 0 64 20 94 13 19 35 41 48 48 29 15 82 9 116 -13z m298 -2 c35 -25
46 -63 46 -160 0 -65 -3 -85 -15 -89 -31 -12 -43 14 -44 93 -1 56 -6 81 -18
95 -22 24 -58 23 -83 -4 -39 -42 -17 -110 40 -122 27 -5 31 -10 28 -33 -2 -21
-9 -29 -28 -31 -36 -4 -89 33 -106 73 -54 131 72 257 180 178z m274 12 c19
-14 24 -14 47 1 38 25 92 9 123 -35 20 -32 22 -45 20 -130 -3 -95 -3 -96 -28
-96 -25 0 -25 2 -30 94 -4 75 -9 96 -22 105 -13 8 -23 8 -35 0 -15 -9 -19 -28
-21 -103 -2 -73 -6 -93 -19 -98 -27 -10 -40 23 -42 104 -2 79 -11 103 -40 103
-32 0 -41 -22 -41 -106 0 -85 -12 -113 -45 -100 -12 4 -15 25 -15 100 0 52 5
106 11 119 23 50 94 72 137 42z m467 -20 c0 -26 -4 -30 -30 -33 -37 -5 -45
-16 -45 -70 0 -48 -19 -100 -43 -120 -8 -7 -31 -16 -50 -19 -29 -4 -37 -2 -47
16 -14 28 2 51 36 51 31 0 44 27 44 92 0 81 36 120 105 115 26 -2 30 -6 30
-32z m393 -103 c2 -116 1 -133 -14 -139 -32 -12 -44 24 -44 131 0 125 6 148
34 144 20 -3 21 -9 24 -136z m225 123 c26 -13 31 -13 50 0 46 32 111 7 136
-53 7 -16 11 -65 9 -118 -3 -88 -3 -89 -28 -89 -24 0 -25 2 -30 90 -5 97 -11
115 -39 115 -33 0 -41 -22 -41 -112 0 -71 -3 -90 -16 -95 -27 -10 -38 16 -44
104 -4 67 -9 88 -22 97 -13 8 -23 8 -35 0 -15 -9 -19 -28 -21 -97 -3 -89 -15
-116 -48 -103 -13 5 -15 22 -12 112 3 105 3 106 36 135 36 32 63 36 105 14z
m455 -5 c19 -12 32 -28 32 -40 0 -31 -71 -111 -95 -108 -28 4 -30 33 -5 65 20
26 21 28 4 32 -21 4 -64 -42 -64 -68 0 -10 9 -30 21 -45 15 -20 30 -26 57 -26
48 0 65 -12 60 -41 -3 -21 -9 -24 -48 -27 -87 -7 -140 46 -140 138 0 62 22
103 64 124 42 21 75 20 114 -4z m373 -19 c16 -16 29 -39 29 -50 0 -17 -6 -21
-35 -21 -22 0 -38 6 -41 15 -9 24 -43 29 -65 9 -13 -12 -19 -30 -19 -60 0 -66
42 -96 77 -54 11 12 30 20 50 20 27 0 33 -4 33 -21 0 -11 -13 -34 -29 -50 -24
-23 -38 -29 -75 -29 -62 0 -94 17 -117 62 -23 46 -24 85 -3 138 20 49 53 69
117 70 41 0 53 -5 78 -29z m256 12 c72 -48 69 -199 -6 -237 -34 -18 -97 -21
-136 -6 -29 11 -64 78 -65 122 0 44 30 107 59 123 36 20 116 19 148 -2z m288
3 c17 -12 22 -12 39 0 32 22 99 18 122 -7 16 -18 20 -40 22 -135 l4 -114 -41
0 -40 0 -3 96 c-2 79 -6 99 -20 108 -14 8 -21 7 -34 -6 -14 -13 -17 -35 -16
-107 l1 -91 -40 0 -39 0 0 94 c0 107 -11 128 -55 108 -24 -11 -25 -15 -25
-107 l0 -95 -40 0 -40 0 0 130 0 131 50 -2 c27 -2 53 0 57 4 12 12 79 7 98 -7z
m7863 -79 c3 -86 3 -87 -22 -87 -24 0 -24 1 -19 70 5 66 4 70 -16 70 -31 0
-26 28 7 33 15 2 32 3 37 2 6 -1 11 -41 13 -88z m1632 78 c0 -8 -9 -15 -20
-15 -11 0 -20 7 -20 15 0 8 9 15 20 15 11 0 20 -7 20 -15z m270 0 c0 -8 -9
-15 -20 -15 -11 0 -20 7 -20 15 0 8 9 15 20 15 11 0 20 -7 20 -15z m580 -32
l1 -48 18 23 c11 12 29 22 40 22 21 0 21 0 1 -32 -19 -31 -19 -32 1 -60 l20
-28 45 52 c24 28 44 55 44 59 0 17 -24 21 -35 6 -16 -23 -45 -22 -45 1 0 28
21 42 62 42 64 0 74 -48 21 -110 l-25 -30 31 0 c21 0 31 -5 31 -15 0 -12 -14
-15 -62 -16 -35 0 -73 -2 -84 -3 -15 -2 -28 7 -40 28 l-19 31 -3 -31 c-3 -26
-7 -31 -23 -27 -17 5 -19 15 -19 94 0 82 2 89 20 89 17 0 20 -7 20 -47z m450
-49 c0 -77 -2 -84 -20 -84 -18 0 -20 7 -20 70 0 56 -3 70 -15 70 -27 0 -16 29
13 32 15 2 30 2 35 0 4 -2 7 -41 7 -88z m-3260 1 c0 -82 -1 -85 -23 -85 -23 0
-24 3 -24 85 0 82 1 85 24 85 22 0 23 -3 23 -85z m140 63 c14 -16 20 -35 20
-69 0 -59 -23 -79 -92 -79 l-48 0 0 85 0 85 50 0 c38 0 54 -5 70 -22z m340 8
c0 -8 -12 -16 -27 -18 -14 -2 -29 -9 -31 -17 -3 -9 0 -11 7 -6 22 13 59 -4 65
-30 16 -62 -24 -99 -82 -79 -43 15 -53 112 -15 149 19 20 83 20 83 1z m144
-18 c8 -23 5 -34 -17 -65 l-27 -38 27 -5 c14 -3 28 -11 31 -17 3 -10 -14 -13
-62 -13 -75 0 -77 7 -19 73 18 20 33 44 33 52 0 19 -29 19 -36 0 -8 -19 -44
-20 -44 -1 0 27 31 47 69 44 29 -2 38 -8 45 -30z m132 24 c14 -9 15 -133 2
-149 -13 -16 -62 -17 -89 -3 -25 14 -25 40 1 40 11 0 20 -4 20 -10 0 -5 9 -10
20 -10 14 0 20 7 20 21 0 12 -8 23 -20 26 -11 3 -20 12 -20 19 0 8 9 14 20 14
11 0 20 7 20 15 0 8 -9 15 -20 15 -11 0 -20 -4 -20 -10 0 -13 -27 -13 -35 0
-18 29 66 56 101 32z m154 -1 c0 -5 -11 -32 -25 -59 -14 -28 -25 -62 -25 -76
0 -19 -5 -26 -20 -26 -26 0 -26 33 0 94 l19 46 -33 0 c-21 0 -36 6 -40 15 -4
12 6 15 59 15 36 0 65 -4 65 -9z m126 -22 c11 -23 14 -44 9 -75 -7 -49 -29
-67 -72 -62 -35 4 -43 28 -9 28 14 0 30 8 35 18 8 16 6 18 -18 14 -32 -4 -53
17 -53 53 0 36 20 55 58 55 27 0 36 -6 50 -31z m133 17 c7 -8 12 -40 12 -72 1
-64 -13 -84 -62 -84 -38 0 -54 25 -54 85 0 29 6 59 14 68 16 21 74 22 90 3z
m135 -2 c11 -10 16 -34 16 -69 0 -64 -16 -85 -66 -85 -42 0 -48 27 -7 32 38 4
42 28 4 28 -20 0 -34 7 -41 19 -25 47 0 91 50 91 16 0 36 -7 44 -16z m150 1
c-4 -9 -19 -15 -35 -15 -38 0 -37 -16 1 -23 34 -7 49 -44 34 -86 -17 -47 -114
-38 -114 11 0 13 38 9 42 -4 6 -18 38 -1 38 21 0 21 -26 36 -36 20 -3 -6 -13
-9 -22 -7 -12 2 -16 15 -17 51 l0 47 57 0 c47 0 56 -3 52 -15z m216 5 c10 -5
24 -26 30 -45 10 -30 9 -41 -7 -72 -22 -45 -60 -61 -105 -42 -55 23 -70 102
-27 148 21 23 77 28 109 11z m160 -60 l0 -70 34 0 c21 0 36 -6 40 -15 4 -12
-5 -15 -54 -15 l-60 0 0 85 c0 78 2 85 20 85 18 0 20 -7 20 -70z m1310 60 c11
-7 15 -27 15 -75 0 -73 -8 -85 -62 -85 -22 0 -36 6 -43 19 -14 27 -13 124 2
139 14 14 67 16 88 2z m284 -12 c8 -13 8 -23 0 -36 -9 -14 -8 -22 2 -37 8 -10
14 -24 14 -31 0 -23 -31 -44 -65 -44 -44 0 -69 25 -60 59 3 14 6 41 5 60 0 19
5 38 12 43 21 14 80 4 92 -14z m-1394 -3 c0 -8 5 -15 10 -15 6 0 10 -7 10 -15
0 -8 -4 -15 -10 -15 -5 0 -10 -16 -10 -35 0 -19 5 -35 10 -35 6 0 10 -7 10
-16 0 -11 -8 -14 -27 -12 -26 3 -28 7 -31 51 -2 26 -7 47 -13 47 -5 0 -9 7 -9
15 0 8 5 15 10 15 6 0 10 7 10 15 0 8 9 15 20 15 11 0 20 -7 20 -15z m-70 -80
c0 -58 -2 -65 -20 -65 -18 0 -20 7 -20 65 0 58 2 65 20 65 18 0 20 -7 20 -65z
m147 28 l9 -38 13 38 c12 35 15 37 57 37 l44 0 0 -65 c0 -58 -2 -65 -20 -65
-18 0 -20 7 -20 60 0 66 -14 80 -25 24 -18 -99 -57 -112 -86 -29 -23 65 -23
75 0 75 14 0 22 -11 28 -37z m250 25 c8 -6 13 -33 13 -64 0 -47 -3 -54 -19
-54 -17 0 -20 8 -23 48 -2 34 -7 47 -18 47 -11 0 -16 -13 -18 -47 -3 -40 -6
-48 -23 -48 -17 0 -19 7 -19 64 l0 64 47 0 c27 0 54 -4 60 -10z m139 -5 c7
-10 13 -31 13 -48 0 -16 -6 -38 -13 -47 -16 -22 -78 -24 -95 -4 -13 16 -22
108 -10 100 4 -2 10 0 14 6 11 17 76 12 91 -7z m70 -25 l8 -43 9 43 c8 33 14
42 31 42 l22 0 -20 -65 c-17 -52 -25 -65 -41 -65 -17 0 -25 13 -42 65 l-21 65
23 0 c19 0 25 -7 31 -42z m170 34 c6 -4 13 -33 16 -64 4 -49 2 -57 -14 -61
-10 -3 -18 -2 -18 1 0 4 -17 7 -37 7 -32 0 -39 4 -41 23 -5 30 14 52 44 52 13
0 24 4 24 9 0 6 -16 7 -36 4 -35 -6 -36 -5 -25 16 12 21 63 29 87 13z m-11061
-177 c0 -27 -3 -30 -30 -30 -21 0 -31 5 -33 18 -6 33 6 49 35 45 24 -3 28 -8
28 -33z"/>
<path d="M4330 450 c-38 -38 -14 -130 34 -130 42 0 62 102 28 133 -24 22 -38
21 -62 -3z"/>
<path d="M12320 435 c0 -48 2 -55 20 -55 22 0 40 28 40 62 0 29 -17 48 -42 48
-15 0 -18 -9 -18 -55z"/>
<path d="M12683 429 c-14 -14 -5 -49 12 -49 19 0 28 32 12 47 -9 9 -16 10 -24
2z"/>
<path d="M13228 478 c-7 -19 2 -38 17 -38 18 0 26 15 19 34 -7 19 -30 21 -36
4z"/>
<path d="M13366 474 c-15 -38 -3 -94 20 -94 10 0 14 15 14 55 0 40 -4 55 -14
55 -8 0 -17 -7 -20 -16z"/>
<path d="M13503 474 c-8 -21 13 -42 28 -27 13 13 5 43 -11 43 -6 0 -13 -7 -17
-16z"/>
<path d="M13835 480 c-39 -43 -9 -110 49 -110 57 0 82 73 40 115 -22 21 -68
19 -89 -5z m75 -5 c15 -18 5 -34 -11 -18 -17 17 -39 4 -39 -22 0 -30 16 -41
36 -24 19 16 30 4 14 -16 -28 -34 -70 -10 -70 40 0 50 42 74 70 40z"/>
<path d="M15340 434 c0 -47 3 -55 18 -52 31 6 28 108 -3 108 -11 0 -15 -13
-15 -56z"/>
<path d="M15620 475 c0 -8 7 -15 15 -15 8 0 15 7 15 15 0 8 -7 15 -15 15 -8 0
-15 -7 -15 -15z"/>
<path d="M15620 416 c-13 -17 -6 -36 15 -36 19 0 26 27 11 39 -10 8 -17 7 -26
-3z"/>
<path d="M14686 432 c-9 -27 3 -54 23 -50 22 5 22 62 -1 66 -9 2 -19 -5 -22
-16z"/>
<path d="M14947 403 c-12 -11 -8 -23 8 -23 8 0 15 7 15 15 0 16 -12 20 -23 8z"/>
</g>
</svg>
